<svg width="50" height="50" viewBox="0 0 50 50" fill="none" xmlns="http://www.w3.org/2000/svg">
<path d="M22.6563 33.5938C22.6563 34.2154 22.9032 34.8115 23.3428 35.251C23.7823 35.6906 24.3784 35.9375 25 35.9375C25.6216 35.9375 26.2178 35.6906 26.6573 35.251C27.0969 34.8115 27.3438 34.2154 27.3438 33.5938C27.3438 32.9722 27.0969 32.376 26.6573 31.9365C26.2178 31.4969 25.6216 31.25 25 31.25C24.3784 31.25 23.7823 31.4969 23.3428 31.9365C22.9032 32.376 22.6563 32.9722 22.6563 33.5938V33.5938ZM26.1719 28.125C26.3868 28.125 26.5625 27.9492 26.5625 27.7344V14.4531C26.5625 14.2383 26.3868 14.0625 26.1719 14.0625H23.8282C23.6133 14.0625 23.4375 14.2383 23.4375 14.4531V27.7344C23.4375 27.9492 23.6133 28.125 23.8282 28.125H26.1719ZM45.7032 18.9453H42.8077C42.6807 18.9453 42.5635 19.0039 42.4903 19.1064L37.2901 26.2744L34.8536 22.915C34.8174 22.8647 34.7697 22.8238 34.7145 22.7958C34.6593 22.7677 34.5981 22.7534 34.5362 22.7539H31.6407C31.3233 22.7539 31.1377 23.1152 31.3233 23.374L36.6553 30.7324C36.7283 30.8323 36.8238 30.9136 36.9341 30.9696C37.0444 31.0256 37.1664 31.0548 37.2901 31.0548C37.4138 31.0548 37.5358 31.0256 37.646 30.9696C37.7563 30.9136 37.8519 30.8323 37.9249 30.7324L46.0206 19.5654C46.2061 19.3066 46.0206 18.9453 45.7032 18.9453ZM43.5547 33.8867H40.42C40.1514 33.8867 39.9024 34.0283 39.7559 34.2529C39.0629 35.354 38.2471 36.3729 37.3243 37.29C35.738 38.8774 33.8594 40.1426 31.792 41.0156C29.6488 41.9195 27.3456 42.3828 25.0196 42.3779C22.6709 42.3779 20.3907 41.919 18.2471 41.0156C16.1798 40.1426 14.3011 38.8774 12.7149 37.29C11.1235 35.7079 9.85632 33.8304 8.98442 31.7627C8.07622 29.624 7.61723 27.3438 7.61723 25C7.61723 22.6563 8.07622 20.376 8.98442 18.2373C9.85845 16.167 11.1133 14.3066 12.7149 12.71C14.3165 11.1133 16.1768 9.8584 18.2471 8.98438C20.3903 8.08048 22.6936 7.61718 25.0196 7.62207C27.3682 7.62207 29.6485 8.08106 31.792 8.98438C33.8623 9.8584 35.7227 11.1133 37.3243 12.71C38.252 13.6377 39.0625 14.6533 39.7559 15.7471C39.8975 15.9766 40.1514 16.1133 40.42 16.1133H43.5547C43.8477 16.1133 44.0332 15.8057 43.9063 15.5469C40.4688 8.71582 33.4327 4.00391 25.2784 3.90625C13.6182 3.76953 3.93071 13.3057 3.9063 24.9609C3.88188 36.626 13.3448 46.0938 25.0196 46.0938C33.2813 46.0938 40.4297 41.3574 43.9014 34.4531C43.9313 34.3937 43.9456 34.3277 43.9429 34.2612C43.9401 34.1948 43.9205 34.1301 43.8857 34.0734C43.851 34.0167 43.8024 33.9698 43.7445 33.9371C43.6865 33.9044 43.6212 33.8871 43.5547 33.8867Z" fill="black"/>
</svg>
