<svg width="245" height="116" viewBox="0 0 245 116" fill="none" xmlns="http://www.w3.org/2000/svg">
<path d="M2 0H235C240.523 0 245 4.47715 245 10V104C245 109.523 240.523 114 235 114H2V0Z" fill="#FFD911"/>
<path d="M33.8995 72.54C32.2195 72.54 30.6415 72.246 29.1655 71.658C27.7015 71.058 26.4115 70.182 25.2955 69.03C24.1915 67.878 23.3275 66.468 22.7035 64.8C22.0795 63.12 21.7675 61.2 21.7675 59.04C21.7675 56.208 22.2955 53.79 23.3515 51.786C24.4075 49.77 25.8535 48.228 27.6895 47.16C29.5255 46.08 31.5955 45.54 33.8995 45.54C37.0915 45.54 39.6175 46.284 41.4775 47.772C43.3495 49.248 44.6155 51.324 45.2755 54L40.8475 54.702C40.3555 53.166 39.5515 51.942 38.4355 51.03C37.3195 50.106 35.8975 49.644 34.1695 49.644C32.4295 49.62 30.9835 49.998 29.8315 50.778C28.6795 51.558 27.8095 52.656 27.2215 54.072C26.6455 55.488 26.3575 57.144 26.3575 59.04C26.3575 60.936 26.6455 62.586 27.2215 63.99C27.7975 65.382 28.6615 66.468 29.8135 67.248C30.9775 68.028 32.4295 68.43 34.1695 68.454C35.4775 68.466 36.6235 68.232 37.6075 67.752C38.5915 67.26 39.3955 66.522 40.0195 65.538C40.6435 64.542 41.0635 63.3 41.2795 61.812H36.7075V58.41H45.8875C45.9115 58.602 45.9295 58.884 45.9415 59.256C45.9535 59.628 45.9595 59.85 45.9595 59.922C45.9595 62.37 45.4735 64.548 44.5015 66.456C43.5415 68.352 42.1615 69.84 40.3615 70.92C38.5615 72 36.4075 72.54 33.8995 72.54ZM58.4127 72.54C56.4447 72.54 54.7167 72.114 53.2287 71.262C51.7407 70.41 50.5767 69.228 49.7367 67.716C48.9087 66.204 48.4947 64.464 48.4947 62.496C48.4947 60.372 48.9027 58.53 49.7187 56.97C50.5347 55.398 51.6687 54.18 53.1207 53.316C54.5727 52.452 56.2527 52.02 58.1607 52.02C60.1767 52.02 61.8867 52.494 63.2907 53.442C64.7067 54.378 65.7567 55.704 66.4407 57.42C67.1247 59.136 67.3827 61.158 67.2147 63.486H62.9127V61.902C62.9007 59.79 62.5287 58.248 61.7967 57.276C61.0647 56.304 59.9127 55.818 58.3407 55.818C56.5647 55.818 55.2447 56.37 54.3807 57.474C53.5167 58.566 53.0847 60.168 53.0847 62.28C53.0847 64.248 53.5167 65.772 54.3807 66.852C55.2447 67.932 56.5047 68.472 58.1607 68.472C59.2287 68.472 60.1467 68.238 60.9147 67.77C61.6947 67.29 62.2947 66.6 62.7147 65.7L66.9987 66.996C66.2547 68.748 65.1027 70.11 63.5427 71.082C61.9947 72.054 60.2847 72.54 58.4127 72.54ZM51.7167 63.486V60.21H65.0907V63.486H51.7167ZM82.6249 72C81.3409 72.24 80.0809 72.342 78.8449 72.306C77.6209 72.282 76.5229 72.06 75.5509 71.64C74.5789 71.208 73.8409 70.53 73.3369 69.606C72.8929 68.766 72.6589 67.908 72.6349 67.032C72.6109 66.156 72.5989 65.166 72.5989 64.062V47.16H76.9189V63.81C76.9189 64.59 76.9249 65.274 76.9369 65.862C76.9609 66.45 77.0869 66.93 77.3149 67.302C77.7469 68.022 78.4369 68.424 79.3849 68.508C80.3329 68.592 81.4129 68.544 82.6249 68.364V72ZM69.0709 55.962V52.56H82.6249V55.962H69.0709ZM103.606 72.54C101.71 72.54 100 72.21 98.4762 71.55C96.9642 70.89 95.7162 69.948 94.7322 68.724C93.7602 67.488 93.1422 66.024 92.8782 64.332L97.3782 63.648C97.7622 65.184 98.5482 66.372 99.7362 67.212C100.936 68.052 102.316 68.472 103.876 68.472C104.8 68.472 105.67 68.328 106.486 68.04C107.302 67.752 107.962 67.332 108.466 66.78C108.982 66.228 109.24 65.55 109.24 64.746C109.24 64.386 109.18 64.056 109.06 63.756C108.94 63.444 108.76 63.168 108.52 62.928C108.292 62.688 107.992 62.472 107.62 62.28C107.26 62.076 106.84 61.902 106.36 61.758L99.6642 59.778C99.0882 59.61 98.4642 59.388 97.7922 59.112C97.1322 58.824 96.5022 58.434 95.9022 57.942C95.3142 57.438 94.8282 56.802 94.4442 56.034C94.0722 55.254 93.8862 54.294 93.8862 53.154C93.8862 51.486 94.3062 50.088 95.1462 48.96C95.9982 47.82 97.1382 46.968 98.5662 46.404C100.006 45.84 101.602 45.564 103.354 45.576C105.13 45.588 106.714 45.894 108.106 46.494C109.498 47.082 110.662 47.94 111.598 49.068C112.534 50.196 113.194 51.558 113.578 53.154L108.916 53.964C108.724 53.052 108.352 52.278 107.8 51.642C107.26 50.994 106.594 50.502 105.802 50.166C105.022 49.83 104.188 49.65 103.3 49.626C102.436 49.614 101.632 49.746 100.888 50.022C100.156 50.286 99.5622 50.67 99.1062 51.174C98.6622 51.678 98.4402 52.266 98.4402 52.938C98.4402 53.574 98.6322 54.096 99.0162 54.504C99.4002 54.9 99.8742 55.218 100.438 55.458C101.014 55.686 101.596 55.878 102.184 56.034L106.828 57.33C107.464 57.498 108.178 57.726 108.97 58.014C109.762 58.302 110.524 58.704 111.256 59.22C111.988 59.736 112.588 60.414 113.056 61.254C113.536 62.094 113.776 63.162 113.776 64.458C113.776 65.802 113.494 66.984 112.93 68.004C112.378 69.012 111.628 69.852 110.68 70.524C109.732 71.196 108.646 71.7 107.422 72.036C106.21 72.372 104.938 72.54 103.606 72.54ZM129.066 72C127.782 72.24 126.522 72.342 125.286 72.306C124.062 72.282 122.964 72.06 121.992 71.64C121.02 71.208 120.282 70.53 119.778 69.606C119.334 68.766 119.1 67.908 119.076 67.032C119.052 66.156 119.04 65.166 119.04 64.062V47.16H123.36V63.81C123.36 64.59 123.366 65.274 123.378 65.862C123.402 66.45 123.528 66.93 123.756 67.302C124.188 68.022 124.878 68.424 125.826 68.508C126.774 68.592 127.854 68.544 129.066 68.364V72ZM115.512 55.962V52.56H129.066V55.962H115.512ZM138.683 72.54C137.279 72.54 136.091 72.276 135.119 71.748C134.147 71.208 133.409 70.494 132.905 69.606C132.413 68.718 132.167 67.74 132.167 66.672C132.167 65.736 132.323 64.896 132.635 64.152C132.947 63.396 133.427 62.748 134.075 62.208C134.723 61.656 135.563 61.206 136.595 60.858C137.375 60.606 138.287 60.378 139.331 60.174C140.387 59.97 141.527 59.784 142.751 59.616C143.987 59.436 145.277 59.244 146.621 59.04L145.073 59.922C145.085 58.578 144.785 57.588 144.173 56.952C143.561 56.316 142.529 55.998 141.077 55.998C140.201 55.998 139.355 56.202 138.539 56.61C137.723 57.018 137.153 57.72 136.829 58.716L132.869 57.474C133.349 55.83 134.261 54.51 135.605 53.514C136.961 52.518 138.785 52.02 141.077 52.02C142.805 52.02 144.323 52.302 145.631 52.866C146.951 53.43 147.929 54.354 148.565 55.638C148.913 56.322 149.123 57.024 149.195 57.744C149.267 58.452 149.303 59.226 149.303 60.066V72H145.505V67.788L146.135 68.472C145.259 69.876 144.233 70.908 143.057 71.568C141.893 72.216 140.435 72.54 138.683 72.54ZM139.547 69.084C140.531 69.084 141.371 68.91 142.067 68.562C142.763 68.214 143.315 67.788 143.723 67.284C144.143 66.78 144.425 66.306 144.569 65.862C144.797 65.31 144.923 64.68 144.947 63.972C144.983 63.252 145.001 62.67 145.001 62.226L146.333 62.622C145.025 62.826 143.903 63.006 142.967 63.162C142.031 63.318 141.227 63.468 140.555 63.612C139.883 63.744 139.289 63.894 138.773 64.062C138.269 64.242 137.843 64.452 137.495 64.692C137.147 64.932 136.877 65.208 136.685 65.52C136.505 65.832 136.415 66.198 136.415 66.618C136.415 67.098 136.535 67.524 136.775 67.896C137.015 68.256 137.363 68.544 137.819 68.76C138.287 68.976 138.863 69.084 139.547 69.084ZM153.989 72V52.56H157.823V57.294L157.355 56.682C157.595 56.034 157.913 55.446 158.309 54.918C158.717 54.378 159.203 53.934 159.767 53.586C160.247 53.262 160.775 53.01 161.351 52.83C161.939 52.638 162.539 52.524 163.151 52.488C163.763 52.44 164.357 52.464 164.933 52.56V56.61C164.357 56.442 163.691 56.388 162.935 56.448C162.191 56.508 161.519 56.718 160.919 57.078C160.319 57.402 159.827 57.816 159.443 58.32C159.071 58.824 158.795 59.4 158.615 60.048C158.435 60.684 158.345 61.374 158.345 62.118V72H153.989ZM179.762 72C178.478 72.24 177.218 72.342 175.982 72.306C174.758 72.282 173.66 72.06 172.688 71.64C171.716 71.208 170.978 70.53 170.474 69.606C170.03 68.766 169.796 67.908 169.772 67.032C169.748 66.156 169.736 65.166 169.736 64.062V47.16H174.056V63.81C174.056 64.59 174.062 65.274 174.074 65.862C174.098 66.45 174.224 66.93 174.452 67.302C174.884 68.022 175.574 68.424 176.522 68.508C177.47 68.592 178.55 68.544 179.762 68.364V72ZM166.208 55.962V52.56H179.762V55.962H166.208ZM191.796 72.54C189.828 72.54 188.1 72.114 186.612 71.262C185.124 70.41 183.96 69.228 183.12 67.716C182.292 66.204 181.878 64.464 181.878 62.496C181.878 60.372 182.286 58.53 183.102 56.97C183.918 55.398 185.052 54.18 186.504 53.316C187.956 52.452 189.636 52.02 191.544 52.02C193.56 52.02 195.27 52.494 196.674 53.442C198.09 54.378 199.14 55.704 199.824 57.42C200.508 59.136 200.766 61.158 200.598 63.486H196.296V61.902C196.284 59.79 195.912 58.248 195.18 57.276C194.448 56.304 193.296 55.818 191.724 55.818C189.948 55.818 188.628 56.37 187.764 57.474C186.9 58.566 186.468 60.168 186.468 62.28C186.468 64.248 186.9 65.772 187.764 66.852C188.628 67.932 189.888 68.472 191.544 68.472C192.612 68.472 193.53 68.238 194.298 67.77C195.078 67.29 195.678 66.6 196.098 65.7L200.382 66.996C199.638 68.748 198.486 70.11 196.926 71.082C195.378 72.054 193.668 72.54 191.796 72.54ZM185.1 63.486V60.21H198.474V63.486H185.1ZM212.408 72.54C210.62 72.54 209.06 72.09 207.728 71.19C206.396 70.29 205.364 69.066 204.632 67.518C203.9 65.97 203.534 64.224 203.534 62.28C203.534 60.312 203.9 58.56 204.632 57.024C205.376 55.476 206.426 54.258 207.782 53.37C209.138 52.47 210.734 52.02 212.57 52.02C214.418 52.02 215.966 52.47 217.214 53.37C218.474 54.258 219.428 55.476 220.076 57.024C220.724 58.572 221.048 60.324 221.048 62.28C221.048 64.212 220.724 65.958 220.076 67.518C219.428 69.066 218.462 70.29 217.178 71.19C215.894 72.09 214.304 72.54 212.408 72.54ZM213.074 68.652C214.238 68.652 215.174 68.388 215.882 67.86C216.602 67.32 217.124 66.57 217.448 65.61C217.784 64.65 217.952 63.54 217.952 62.28C217.952 61.008 217.784 59.898 217.448 58.95C217.124 57.99 216.614 57.246 215.918 56.718C215.222 56.178 214.322 55.908 213.218 55.908C212.054 55.908 211.094 56.196 210.338 56.772C209.582 57.336 209.024 58.104 208.664 59.076C208.304 60.036 208.124 61.104 208.124 62.28C208.124 63.468 208.298 64.548 208.646 65.52C209.006 66.48 209.552 67.242 210.284 67.806C211.016 68.37 211.946 68.652 213.074 68.652ZM217.952 72V58.356H217.412V46.08H221.786V72H217.952Z" fill="white"/>
</svg>
