<svg width="40" height="40" viewBox="0 0 40 40" fill="none" xmlns="http://www.w3.org/2000/svg">
<rect width="40" height="40" fill="white"/>
<path opacity="0.3" d="M8.33325 31.6665V8.33325H18.3333V31.6665H8.33325ZM31.6666 31.6665H21.6666V19.9999H31.6666V31.6665ZM31.6666 16.6665H21.6666V8.33325H31.6666V16.6665Z" fill="white"/>
<path d="M31.6666 5H8.33336C6.5 5 5 6.5 5 8.33336V31.6666C5 33.5 6.5 35 8.33336 35H31.6666C33.5 35 35 33.5 35 31.6666V8.33336C35 6.5 33.5 5 31.6666 5ZM8.33336 31.6666V8.33336H18.3334V31.6666H8.33336ZM31.6666 31.6666H21.6666V20H31.6666V31.6666ZM31.6666 16.6666H21.6666V8.33336H31.6666V16.6666Z" fill="black"/>
</svg>
