<svg width="100" height="91" viewBox="0 0 100 91" fill="none" xmlns="http://www.w3.org/2000/svg">
<path d="M72.2656 67.1836C77.9082 71.3639 81.25 75.3718 81.25 82.4688" stroke="black" stroke-width="6.25" stroke-linecap="round" stroke-linejoin="round"/>
<path d="M27.7344 67.1836C22.0918 71.3639 18.75 75.37 18.75 82.4688" stroke="black" stroke-width="6.25" stroke-linecap="round" stroke-linejoin="round"/>
<path d="M75 36.9688C80.6426 32.7884 81.25 27.0032 81.25 19.9062" stroke="black" stroke-width="6.25" stroke-linecap="round" stroke-linejoin="round"/>
<path d="M25 36.6133C19.3574 32.433 18.75 27.005 18.75 19.9062" stroke="black" stroke-width="6.25" stroke-linecap="round" stroke-linejoin="round"/>
<path d="M90.625 51.2106H75" stroke="black" stroke-width="6.25" stroke-linecap="round" stroke-linejoin="round"/>
<path d="M25 51.2106H9.375" stroke="black" stroke-width="6.25" stroke-linecap="round" stroke-linejoin="round"/>
<path d="M50 34.125V79.625" stroke="black" stroke-width="6.25" stroke-linecap="round" stroke-linejoin="round"/>
<path d="M50 79.625C36.25 79.625 25 69.3875 25 56.875V39.8C25 28.2349 36.25 22.7375 50 22.7375C63.75 22.7375 75 27.2875 75 39.8V56.875C75 69.3875 63.75 79.625 50 79.625Z" stroke="black" stroke-width="6.25" stroke-linecap="round" stroke-linejoin="round"/>
<path d="M35.0449 25.5084C34.654 24.6164 34.4277 23.6718 34.375 22.7127C34.3858 18.9546 36.0312 15.3532 38.9514 12.6958C41.8716 10.0384 45.8292 8.5411 49.959 8.53125H50.041C54.1708 8.5411 58.1284 10.0384 61.0486 12.6958C63.9688 15.3532 65.6142 18.9546 65.625 22.7127C65.5873 23.5858 65.381 24.4462 65.0156 25.2543" stroke="black" stroke-width="6.25" stroke-linecap="round" stroke-linejoin="round"/>
</svg>
