<svg width="71" height="71" viewBox="0 0 71 71" fill="none" xmlns="http://www.w3.org/2000/svg">
<path d="M35.4999 35.5C43.6691 35.5 50.2916 28.8775 50.2916 20.7083C50.2916 12.5391 43.6691 5.91666 35.4999 5.91666C27.3307 5.91666 20.7083 12.5391 20.7083 20.7083C20.7083 28.8775 27.3307 35.5 35.4999 35.5Z" stroke="black" stroke-width="8.33333"/>
<path d="M50.2917 41.4167H51.333C53.4958 41.4173 55.5839 42.2076 57.2051 43.6392C58.8262 45.0708 59.8688 47.0451 60.137 49.1912L61.2937 58.433C61.3978 59.2656 61.3235 60.1107 61.076 60.9124C60.8284 61.7141 60.4132 62.4539 59.8578 63.0829C59.3025 63.7118 58.6197 64.2154 57.8548 64.5603C57.09 64.9052 56.2605 65.0835 55.4214 65.0833H15.5786C14.7396 65.0835 13.9101 64.9052 13.1452 64.5603C12.3803 64.2154 11.6976 63.7118 11.1422 63.0829C10.5869 62.4539 10.1716 61.7141 9.92405 60.9124C9.67649 60.1107 9.60227 59.2656 9.70631 58.433L10.8601 49.1912C11.1284 47.0441 12.1718 45.069 13.7942 43.6372C15.4166 42.2055 17.5062 41.4158 19.67 41.4167H20.7084" stroke="black" stroke-width="8.33333" stroke-linecap="round" stroke-linejoin="round"/>
</svg>
